%TF.GenerationSoftware,Altium Limited,Altium Designer,25.8.1 (18)*%
G04 Layer_Physical_Order=2*
G04 Layer_Color=16711680*
%FSLAX45Y45*%
%MOMM*%
%TF.SameCoordinates,06F4397F-0506-4A86-9E35-FFD2449574FE*%
%TF.FilePolarity,Positive*%
%TF.FileFunction,Copper,L2,Bot,Signal*%
%TF.Part,Single*%
G01*
G75*
%TA.AperFunction,Conductor*%
%ADD33C,0.50000*%
%ADD34C,0.30000*%
%ADD35C,0.40000*%
%TA.AperFunction,ComponentPad*%
%ADD36R,1.29000X1.29000*%
%ADD37C,1.29000*%
%ADD38C,3.00000*%
%ADD39C,1.15000*%
%ADD40R,1.20000X1.20000*%
G04:AMPARAMS|DCode=41|XSize=1.4mm|YSize=1.4mm|CornerRadius=0.35mm|HoleSize=0mm|Usage=FLASHONLY|Rotation=270.000|XOffset=0mm|YOffset=0mm|HoleType=Round|Shape=RoundedRectangle|*
%AMROUNDEDRECTD41*
21,1,1.40000,0.70000,0,0,270.0*
21,1,0.70000,1.40000,0,0,270.0*
1,1,0.70000,-0.35000,-0.35000*
1,1,0.70000,-0.35000,0.35000*
1,1,0.70000,0.35000,0.35000*
1,1,0.70000,0.35000,-0.35000*
%
%ADD41ROUNDEDRECTD41*%
%ADD42C,1.39000*%
%ADD43C,1.40000*%
%ADD44R,1.39000X1.39000*%
%ADD45R,1.15000X1.15000*%
%ADD46C,1.20000*%
%ADD47R,1.39000X1.39000*%
%TA.AperFunction,ViaPad*%
%ADD48C,0.60000*%
%ADD49C,0.55000*%
G36*
X15427499Y10155000D02*
X15414999Y10142500D01*
Y7232500D01*
X15335001Y7152500D01*
X4767500D01*
X4675000Y7245000D01*
Y10175000D01*
X4762500Y10247500D01*
X15335001D01*
X15427499Y10155000D01*
D02*
G37*
%LPC*%
G36*
X14592813Y10016597D02*
X14559326D01*
X14526482Y10010064D01*
X14495544Y9997249D01*
X14467702Y9978645D01*
X14444022Y9954966D01*
X14425417Y9927122D01*
X14412604Y9896184D01*
X14406068Y9863340D01*
Y9829854D01*
X14412604Y9797010D01*
X14425417Y9766072D01*
X14444022Y9738228D01*
X14467702Y9714550D01*
X14495544Y9695945D01*
X14526482Y9683130D01*
X14559326Y9676597D01*
X14592813D01*
X14625658Y9683130D01*
X14656595Y9695945D01*
X14684438Y9714550D01*
X14708118Y9738228D01*
X14726721Y9766072D01*
X14739536Y9797010D01*
X14746069Y9829854D01*
Y9863340D01*
X14739536Y9896184D01*
X14726721Y9927122D01*
X14708118Y9954966D01*
X14684438Y9978645D01*
X14656595Y9997249D01*
X14625658Y10010064D01*
X14592813Y10016597D01*
D02*
G37*
G36*
X7065532Y9597500D02*
X7044468D01*
X7024121Y9592048D01*
X7005879Y9581516D01*
X6990984Y9566621D01*
X6980452Y9548379D01*
X6975000Y9528032D01*
Y9506968D01*
X6980452Y9486621D01*
X6990984Y9468379D01*
X7005879Y9453484D01*
X7024121Y9442952D01*
X7044468Y9437500D01*
X7065532D01*
X7085879Y9442952D01*
X7104121Y9453484D01*
X7119016Y9468379D01*
X7129548Y9486621D01*
X7135000Y9506968D01*
Y9528032D01*
X7129548Y9548379D01*
X7119016Y9566621D01*
X7104121Y9581516D01*
X7085879Y9592048D01*
X7065532Y9597500D01*
D02*
G37*
G36*
X12262500Y9966392D02*
X10462500D01*
X10454696Y9964840D01*
X10448081Y9960419D01*
X10443660Y9953804D01*
X10442108Y9946000D01*
Y9327000D01*
X10443660Y9319196D01*
X10448081Y9312581D01*
X10454696Y9308160D01*
X10462500Y9306608D01*
X12262500D01*
X12270304Y9308160D01*
X12276919Y9312581D01*
X12281340Y9319196D01*
X12282892Y9327000D01*
Y9946000D01*
X12281340Y9953804D01*
X12276919Y9960419D01*
X12270304Y9964840D01*
X12262500Y9966392D01*
D02*
G37*
G36*
X8454283Y9077000D02*
X8430717D01*
X8407954Y9070901D01*
X8387546Y9059118D01*
X8370882Y9042454D01*
X8359099Y9022046D01*
X8353000Y8999283D01*
Y8975717D01*
X8359099Y8952954D01*
X8370882Y8932546D01*
X8387546Y8915882D01*
X8407954Y8904099D01*
X8430717Y8898000D01*
X8454283D01*
X8477046Y8904099D01*
X8497454Y8915882D01*
X8514118Y8932546D01*
X8525901Y8952954D01*
X8532000Y8975717D01*
Y8999283D01*
X8525901Y9022046D01*
X8514118Y9042454D01*
X8497454Y9059118D01*
X8477046Y9070901D01*
X8454283Y9077000D01*
D02*
G37*
G36*
X8025000Y9820882D02*
X7197500D01*
X7179942Y9817389D01*
X7165057Y9807443D01*
X7155111Y9792558D01*
X7151618Y9775000D01*
X7155111Y9757442D01*
X7165057Y9742557D01*
X7179942Y9732611D01*
X7197500Y9729118D01*
X8005995D01*
X8305057Y9430057D01*
X8699118Y9035995D01*
Y8932500D01*
X8702611Y8914942D01*
X8712557Y8900057D01*
X8727442Y8890111D01*
X8745000Y8886618D01*
X8762558Y8890111D01*
X8777443Y8900057D01*
X8778751Y8902015D01*
X8780709Y8903323D01*
X8949005Y9071618D01*
X9462500D01*
X9480058Y9075111D01*
X9494943Y9085057D01*
X9504889Y9099942D01*
X9508382Y9117500D01*
X9504889Y9135058D01*
X9494943Y9149943D01*
X9480058Y9159889D01*
X9462500Y9163381D01*
X8930000D01*
X8912442Y9159889D01*
X8897557Y9149943D01*
X8809837Y9062223D01*
X8788135Y9068806D01*
X8787389Y9072558D01*
X8777443Y9087443D01*
X8369943Y9494943D01*
X8057443Y9807443D01*
X8042558Y9817389D01*
X8025000Y9820882D01*
D02*
G37*
G36*
X12584946Y9255000D02*
X12565054D01*
X12546677Y9247388D01*
X12532612Y9233323D01*
X12525000Y9214946D01*
Y9195054D01*
X12532612Y9176677D01*
X12546677Y9162612D01*
X12565054Y9155000D01*
X12567323D01*
X12688249Y9034074D01*
X12688249Y9034074D01*
X12701481Y9025233D01*
X12717088Y9022129D01*
X12906779D01*
X12910660Y9018000D01*
X12902011Y8998000D01*
X12897501D01*
Y8843000D01*
X13052499D01*
Y8998000D01*
X12994843D01*
X12991501Y9004340D01*
X12988712Y9018000D01*
X12999889Y9029177D01*
X13007500Y9047554D01*
Y9067446D01*
X12999889Y9085823D01*
X12985823Y9099888D01*
X12967445Y9107500D01*
X12947554D01*
X12938232Y9103639D01*
X12937946Y9103696D01*
X12937946Y9103696D01*
X12733981D01*
X12625000Y9212677D01*
Y9214946D01*
X12617388Y9233323D01*
X12603323Y9247388D01*
X12584946Y9255000D01*
D02*
G37*
G36*
X12386948Y9530000D02*
X12368052D01*
X12350594Y9522768D01*
X12337232Y9509406D01*
X12330000Y9491948D01*
Y9473052D01*
X12331618Y9469145D01*
Y9260000D01*
X12335111Y9242442D01*
X12345057Y9227557D01*
X12397557Y9175057D01*
X12405729Y9169597D01*
X12413094Y9162232D01*
X12424314Y9157584D01*
Y8839046D01*
X12403827Y8818559D01*
X12161981Y9060406D01*
X12147096Y9070351D01*
X12129538Y9073844D01*
X10400179D01*
X10396272Y9075462D01*
X10377375D01*
X10359917Y9068231D01*
X10353824Y9062137D01*
X10328387Y9059290D01*
X10018838Y9368839D01*
X10005607Y9377679D01*
X9990000Y9380784D01*
X9974393Y9377679D01*
X9962819Y9369946D01*
X9959260D01*
X9945604Y9367229D01*
X9934026Y9359494D01*
X9772266Y9197734D01*
X9764531Y9186156D01*
X9761814Y9172500D01*
X9764531Y9158844D01*
X9772266Y9147266D01*
X9906814Y9012719D01*
Y8991125D01*
X9887445Y8977500D01*
X9867554D01*
X9849177Y8969888D01*
X9835112Y8955823D01*
X9827500Y8937446D01*
Y8932967D01*
X9595218Y8700686D01*
X9017525D01*
X9008323Y8709888D01*
X8989946Y8717500D01*
X8970054D01*
X8951677Y8709888D01*
X8937612Y8695823D01*
X8930000Y8677446D01*
Y8657554D01*
X8937612Y8639177D01*
X8951677Y8625112D01*
X8970054Y8617500D01*
X8989946D01*
X9008323Y8625112D01*
X9012525Y8629314D01*
X9610000D01*
X9623656Y8632031D01*
X9635233Y8639766D01*
X9751643Y8756176D01*
X9770075Y8746323D01*
X9769314Y8742500D01*
X9772031Y8728844D01*
X9779766Y8717266D01*
X9791344Y8709531D01*
X9805000Y8706814D01*
X9818656Y8709531D01*
X9830234Y8717266D01*
X9956618Y8843651D01*
X9976618Y8835367D01*
Y7863382D01*
X9119683D01*
X9102125Y7859889D01*
X9087240Y7849943D01*
X8853678Y7616382D01*
X8066663D01*
X8057776Y7636381D01*
X8065901Y7650454D01*
X8072000Y7673217D01*
Y7696783D01*
X8065901Y7719546D01*
X8054118Y7739954D01*
X8037454Y7756618D01*
X8017046Y7768401D01*
X7994283Y7774500D01*
X7970717D01*
X7947954Y7768401D01*
X7927545Y7756618D01*
X7910882Y7739954D01*
X7899099Y7719546D01*
X7893000Y7696783D01*
Y7680171D01*
X7873941Y7670946D01*
X7584943Y7959943D01*
X7570059Y7969889D01*
X7552500Y7973382D01*
X6191505D01*
X6129006Y8035880D01*
X6124888Y8045823D01*
X6110823Y8059888D01*
X6092446Y8067500D01*
X6072554D01*
X6054177Y8059888D01*
X6040112Y8045823D01*
X6032500Y8027446D01*
Y8007554D01*
X6040112Y7989177D01*
X6054177Y7975112D01*
X6064120Y7970994D01*
X6140057Y7895057D01*
X6154942Y7885111D01*
X6172500Y7881618D01*
X7533495D01*
X7877057Y7538057D01*
X7891942Y7528111D01*
X7909500Y7524618D01*
X8872683D01*
X8890241Y7528111D01*
X8905126Y7538057D01*
X9138688Y7771618D01*
X10040111D01*
X10050054Y7767500D01*
X10069946D01*
X10088323Y7775112D01*
X10102388Y7789177D01*
X10110000Y7807554D01*
Y7827446D01*
X10102388Y7845823D01*
X10088323Y7859888D01*
X10078380Y7864006D01*
X10068381Y7874005D01*
Y8898495D01*
X10125880Y8955994D01*
X10135823Y8960112D01*
X10149888Y8974177D01*
X10157500Y8992554D01*
Y9012446D01*
X10149888Y9030823D01*
X10135823Y9044888D01*
X10117446Y9052500D01*
X10097554D01*
X10079177Y9044888D01*
X10065112Y9030823D01*
X10060994Y9020880D01*
X9998185Y8958072D01*
X9978186Y8966356D01*
Y9027500D01*
X9975469Y9041157D01*
X9967733Y9052734D01*
X9847967Y9172500D01*
X9973895Y9298428D01*
X10281717Y8990607D01*
Y8049393D01*
X10216162Y7983838D01*
X10207321Y7970607D01*
X10204216Y7955000D01*
X10204217Y7954999D01*
Y7761251D01*
X10204216Y7761250D01*
X10207321Y7745643D01*
X10216162Y7732412D01*
X10249216Y7699357D01*
Y7522500D01*
X10252321Y7506893D01*
X10261162Y7493662D01*
X10274393Y7484821D01*
X10290000Y7481717D01*
X10305607Y7484821D01*
X10318838Y7493662D01*
X10327679Y7506893D01*
X10330784Y7522500D01*
Y7716250D01*
X10327679Y7731858D01*
X10318838Y7745089D01*
X10318838Y7745089D01*
X10285784Y7778143D01*
Y7914217D01*
X10884999D01*
X10885000Y7914216D01*
X10900607Y7917321D01*
X10913838Y7926162D01*
X11103838Y8116162D01*
X11112679Y8129393D01*
X11115784Y8145000D01*
X11112679Y8160607D01*
X11103838Y8173838D01*
X11090607Y8182679D01*
X11075000Y8185784D01*
X11059393Y8182679D01*
X11046162Y8173838D01*
X10868107Y7995784D01*
X10370128D01*
X10359438Y8015784D01*
X10360179Y8016893D01*
X10363284Y8032500D01*
X10363284Y8032501D01*
Y8971047D01*
X10377376Y8980463D01*
X10396272D01*
X10400179Y8982081D01*
X12110533D01*
X12338719Y8753895D01*
X11963662Y8378838D01*
X11954821Y8365607D01*
X11951716Y8350000D01*
X11951717Y8349999D01*
Y7755001D01*
X11951716Y7755000D01*
X11954821Y7739393D01*
X11963662Y7726162D01*
X12378015Y7311808D01*
X12384732Y7295593D01*
X12398094Y7282232D01*
X12415552Y7275000D01*
X12434448D01*
X12451907Y7282232D01*
X12465268Y7295593D01*
X12472500Y7313052D01*
Y7331948D01*
X12465268Y7349406D01*
X12451907Y7362768D01*
X12435692Y7369485D01*
X12033284Y7771893D01*
Y8178690D01*
X12053284Y8192188D01*
X12060957Y8190662D01*
X12361618D01*
Y7980000D01*
X12365111Y7962442D01*
X12375057Y7947557D01*
X12660057Y7662557D01*
X12674942Y7652611D01*
X12692500Y7649119D01*
X12710058Y7652611D01*
X12724943Y7662557D01*
X12734889Y7677442D01*
X12738381Y7695000D01*
X12734889Y7712558D01*
X12724943Y7727443D01*
X12453381Y7999005D01*
Y8242500D01*
X12449889Y8260058D01*
X12439943Y8274943D01*
X12425058Y8284889D01*
X12407500Y8288381D01*
X12389942Y8284889D01*
X12386254Y8282425D01*
X12064809D01*
X12060000Y8283381D01*
X12053284Y8282045D01*
X12033284Y8295993D01*
Y8333107D01*
X12396395Y8696218D01*
X12507097Y8585517D01*
Y8569522D01*
X12510589Y8551963D01*
X12520535Y8537078D01*
X12672557Y8385057D01*
X12687442Y8375111D01*
X12705000Y8371619D01*
X12829144D01*
X12833052Y8370000D01*
X12851949D01*
X12869408Y8377232D01*
X12880530Y8388355D01*
X12892332Y8387855D01*
X12902121Y8385052D01*
X12902782Y8382586D01*
X12912985Y8364914D01*
X12927414Y8350485D01*
X12945087Y8340282D01*
X12964796Y8335000D01*
X12985204D01*
X13004913Y8340282D01*
X13022586Y8350485D01*
X13037015Y8364914D01*
X13047218Y8382586D01*
X13052499Y8402297D01*
Y8422703D01*
X13047218Y8442414D01*
X13037015Y8460086D01*
X13022586Y8474515D01*
X13004913Y8484719D01*
X12985204Y8490000D01*
X12964796D01*
X12945087Y8484719D01*
X12927414Y8474515D01*
X12912985Y8460086D01*
X12904214Y8444895D01*
X12894579Y8443231D01*
X12882768Y8444407D01*
X12869408Y8457768D01*
X12851949Y8465000D01*
X12833052D01*
X12829144Y8463382D01*
X12724005D01*
X12598860Y8588526D01*
Y8604522D01*
X12595367Y8622080D01*
X12585422Y8636965D01*
X12454294Y8768092D01*
X12485234Y8799031D01*
X12492969Y8810608D01*
X12495686Y8824265D01*
Y9175735D01*
X12492969Y9189391D01*
X12487500Y9197577D01*
Y9211948D01*
X12480268Y9229406D01*
X12466906Y9242768D01*
X12454464Y9247922D01*
X12423382Y9279005D01*
Y9469145D01*
X12425000Y9473052D01*
Y9491948D01*
X12417768Y9509406D01*
X12404406Y9522768D01*
X12386948Y9530000D01*
D02*
G37*
G36*
X7124349Y8880000D02*
X7100652D01*
X7077762Y8873866D01*
X7057239Y8862018D01*
X7040482Y8845261D01*
X7028634Y8824739D01*
X7022500Y8801849D01*
Y8778151D01*
X7028634Y8755261D01*
X7040482Y8734739D01*
X7057239Y8717982D01*
X7077762Y8706133D01*
X7100652Y8700000D01*
X7124349D01*
X7147239Y8706133D01*
X7167761Y8717982D01*
X7184518Y8734739D01*
X7196367Y8755261D01*
X7202500Y8778151D01*
Y8801849D01*
X7196367Y8824739D01*
X7184518Y8845261D01*
X7167761Y8862018D01*
X7147239Y8873866D01*
X7124349Y8880000D01*
D02*
G37*
G36*
X8532000Y8877000D02*
X8353000D01*
Y8698000D01*
X8532000D01*
Y8877000D01*
D02*
G37*
G36*
X12731203Y8744000D02*
X12710797D01*
X12691086Y8738719D01*
X12673414Y8728515D01*
X12658985Y8714086D01*
X12648781Y8696414D01*
X12643500Y8676703D01*
Y8656297D01*
X12648781Y8636586D01*
X12658985Y8618914D01*
X12673414Y8604485D01*
X12691086Y8594282D01*
X12710797Y8589000D01*
X12731203D01*
X12750914Y8594282D01*
X12768586Y8604485D01*
X12783015Y8618914D01*
X12793219Y8636586D01*
X12798500Y8656297D01*
Y8676703D01*
X12793219Y8696414D01*
X12783015Y8714086D01*
X12768586Y8728515D01*
X12750914Y8738719D01*
X12731203Y8744000D01*
D02*
G37*
G36*
X6572446Y9177500D02*
X6552554D01*
X6534177Y9169888D01*
X6520112Y9155823D01*
X6517761Y9150148D01*
X6034120Y8666506D01*
X6024177Y8662388D01*
X6010112Y8648323D01*
X6002500Y8629946D01*
Y8610054D01*
X6010112Y8591677D01*
X6024177Y8577612D01*
X6042554Y8570000D01*
X6062446D01*
X6080823Y8577612D01*
X6094888Y8591677D01*
X6099006Y8601620D01*
X6576612Y9079226D01*
X6590823Y9085112D01*
X6604888Y9099177D01*
X6612500Y9117554D01*
Y9137446D01*
X6604888Y9155823D01*
X6590823Y9169888D01*
X6572446Y9177500D01*
D02*
G37*
G36*
X7240000Y9168381D02*
X7222442Y9164889D01*
X7207557Y9154943D01*
X7197611Y9140058D01*
X7194118Y9122500D01*
Y9121147D01*
X7197611Y9103589D01*
X7207557Y9088704D01*
X7236618Y9059642D01*
Y8297500D01*
X7240111Y8279942D01*
X7250057Y8265057D01*
X7264942Y8255111D01*
X7282500Y8251618D01*
X7300058Y8255111D01*
X7314943Y8265057D01*
X7324889Y8279942D01*
X7328382Y8297500D01*
Y9078647D01*
X7324889Y9096205D01*
X7314943Y9111090D01*
X7275168Y9150865D01*
X7272443Y9154943D01*
X7257558Y9164889D01*
X7240000Y9168381D01*
D02*
G37*
G36*
X8072000Y7974500D02*
X7893000D01*
Y7795500D01*
X8072000D01*
Y7974500D01*
D02*
G37*
G36*
X7414500Y7789500D02*
X7235500D01*
Y7610500D01*
X7414500D01*
Y7789500D01*
D02*
G37*
G36*
X12399946Y7707500D02*
X12380054D01*
X12361677Y7699888D01*
X12347612Y7685823D01*
X12340000Y7667446D01*
Y7647554D01*
X12347612Y7629177D01*
X12361677Y7615112D01*
X12371620Y7610994D01*
X12443807Y7538807D01*
X12458692Y7528861D01*
X12476250Y7525368D01*
X14267039D01*
X14312907Y7479501D01*
X14315112Y7474177D01*
X14329176Y7460112D01*
X14347554Y7452500D01*
X14362988D01*
X14372205Y7441701D01*
X14375513Y7434194D01*
X14370328Y7425213D01*
X14364569Y7403722D01*
Y7381472D01*
X14370328Y7359981D01*
X14381453Y7340713D01*
X14397185Y7324980D01*
X14416454Y7313856D01*
X14437946Y7308097D01*
X14460194D01*
X14481685Y7313856D01*
X14500954Y7324980D01*
X14516685Y7340713D01*
X14527811Y7359981D01*
X14533569Y7381472D01*
Y7403722D01*
X14527811Y7425213D01*
X14516685Y7444481D01*
X14500954Y7460214D01*
X14481685Y7471339D01*
X14460194Y7477097D01*
X14437946D01*
X14420848Y7472516D01*
X14410373Y7480896D01*
X14405708Y7488229D01*
X14407500Y7492554D01*
Y7512446D01*
X14399889Y7530823D01*
X14385823Y7544888D01*
X14371262Y7550920D01*
X14318488Y7603693D01*
X14303603Y7613639D01*
X14286044Y7617132D01*
X12495255D01*
X12436506Y7675880D01*
X12432388Y7685823D01*
X12418323Y7699888D01*
X12399946Y7707500D01*
D02*
G37*
G36*
X14279568Y7477097D02*
X14110568D01*
Y7308097D01*
X14279568D01*
Y7477097D01*
D02*
G37*
G36*
X13712500Y8518381D02*
X13694942Y8514889D01*
X13680057Y8504943D01*
X13670111Y8490058D01*
X13666618Y8472500D01*
X13670111Y8454942D01*
X13680057Y8440057D01*
X14217142Y7902973D01*
X14232027Y7893027D01*
X14249583Y7889534D01*
X14296101D01*
X14689592Y7496044D01*
X14682726Y7474627D01*
X14670454Y7471339D01*
X14651186Y7460214D01*
X14635452Y7444481D01*
X14624329Y7425213D01*
X14618568Y7403722D01*
Y7381472D01*
X14624329Y7359981D01*
X14635452Y7340713D01*
X14651186Y7324980D01*
X14670454Y7313856D01*
X14691945Y7308097D01*
X14714194D01*
X14735686Y7313856D01*
X14754955Y7324980D01*
X14770686Y7340713D01*
X14781812Y7359981D01*
X14785098Y7372253D01*
X14786238Y7372704D01*
X14805353Y7367617D01*
Y7341266D01*
X14808846Y7323708D01*
X14818791Y7308823D01*
X14917557Y7210057D01*
X14932442Y7200111D01*
X14950000Y7196619D01*
X14967558Y7200111D01*
X14982443Y7210057D01*
X14992389Y7224942D01*
X14995882Y7242500D01*
X14992389Y7260058D01*
X14982443Y7274943D01*
X14897116Y7360271D01*
Y7399288D01*
X14893623Y7416846D01*
X14883678Y7431731D01*
X14347549Y7967859D01*
X14332664Y7977805D01*
X14315108Y7981297D01*
X14268588D01*
X13744943Y8504943D01*
X13730058Y8514889D01*
X13712500Y8518381D01*
D02*
G37*
%LPD*%
D33*
X12476250Y7571250D02*
X14286044D01*
X14354794Y7502500D02*
X14357500D01*
X14286044Y7571250D02*
X14354794Y7502500D01*
X12390000Y7657500D02*
X12476250Y7571250D01*
X7282500Y8297500D02*
Y9078647D01*
X7240000Y9121147D02*
X7282500Y9078647D01*
X7240000Y9121147D02*
Y9122500D01*
X14249583Y7935416D02*
X14315108D01*
X14851234Y7399288D01*
X13712500Y8472500D02*
X14249583Y7935416D01*
X14851234Y7341266D02*
Y7399288D01*
Y7341266D02*
X14950000Y7242500D01*
X8748266Y8935766D02*
X8930000Y9117500D01*
X8337500Y9462500D02*
X8745000Y9055000D01*
Y8932500D02*
Y9055000D01*
X8930000Y9117500D02*
X9462500D01*
X8025000Y9775000D02*
X8337500Y9462500D01*
X7197500Y9775000D02*
X8025000D01*
X12405484Y8239147D02*
Y8239516D01*
X12402881Y8236543D02*
X12405484Y8239147D01*
X12060957Y8236543D02*
X12402881D01*
X12060000Y8237500D02*
X12060957Y8236543D01*
X12407500Y7980000D02*
Y8242500D01*
Y7980000D02*
X12692500Y7695000D01*
X7909500Y7570500D02*
X8872683D01*
X7552500Y7927500D02*
X7909500Y7570500D01*
X6172500Y7927500D02*
X7552500D01*
X8872683Y7570500D02*
X9119683Y7817500D01*
X6082500Y8017500D02*
X6172500Y7927500D01*
X12129538Y9027962D02*
X12400000Y8757500D01*
X12552978Y8604522D01*
X10386824Y9027962D02*
X12129538D01*
X10022500Y8917500D02*
X10107500Y9002500D01*
X10022500Y7855000D02*
X10060000Y7817500D01*
X10022500Y7855000D02*
Y8917500D01*
X9119683Y7817500D02*
X10060000D01*
X12552978Y8569522D02*
Y8604522D01*
Y8569522D02*
X12705000Y8417500D01*
X12842500D01*
X12377500Y9260000D02*
X12430000Y9207500D01*
X12377500Y9260000D02*
Y9482500D01*
X6052500Y8620000D02*
X6561250Y9128750D01*
D34*
X12440000Y9195735D02*
Y9202500D01*
Y9195735D02*
X12460000Y9175735D01*
X12400000Y8764265D02*
X12460000Y8824265D01*
Y9175735D01*
X9797500Y9172500D02*
X9942500Y9027500D01*
X9805000Y8742500D02*
X9942500Y8880000D01*
Y9027500D01*
X9984260Y9334260D02*
X9990000Y9340000D01*
X9959260Y9334260D02*
X9984260D01*
X9797500Y9172500D02*
X9959260Y9334260D01*
X9610000Y8665000D02*
X9872500Y8927500D01*
X9877500D01*
X12400000Y8757500D02*
Y8764265D01*
X8980000Y8667500D02*
X8982500Y8665000D01*
X9610000D01*
D35*
X10290000Y7522500D02*
Y7716250D01*
X10245000Y7761250D02*
Y7955000D01*
Y7761250D02*
X10290000Y7716250D01*
X10245000Y7955000D02*
X10322500Y8032500D01*
Y9007500D01*
X9990000Y9340000D02*
X10322500Y9007500D01*
X10885000Y7955000D02*
X11075000Y8145000D01*
X10245000Y7955000D02*
X10885000D01*
X11992500Y8350000D02*
X12395101Y8752600D01*
X11992500Y7755000D02*
Y8350000D01*
X12395101Y8752600D02*
X12397970D01*
X11992500Y7755000D02*
X12425000Y7322500D01*
X12953673Y9061327D02*
X12957500Y9057500D01*
X12717088Y9062912D02*
X12937946D01*
X12575000Y9205000D02*
X12717088Y9062912D01*
X12939531Y9061327D02*
X12953673D01*
X12937946Y9062912D02*
X12939531Y9061327D01*
D36*
X14195068Y7392597D02*
D03*
D37*
X14957069D02*
D03*
X14449069D02*
D03*
X14703069D02*
D03*
D38*
X14576070Y9846597D02*
D03*
D39*
X13228999Y8666500D02*
D03*
X12975000Y8412500D02*
D03*
X12721000Y8666500D02*
D03*
D40*
X7055000Y9767500D02*
D03*
D41*
X7112500Y8290000D02*
D03*
D42*
X7125000Y7700000D02*
D03*
X8442500Y8987500D02*
D03*
X7982500Y7685000D02*
D03*
D43*
X7112500Y8790000D02*
D03*
D44*
X8442500Y8787500D02*
D03*
X7982500Y7885000D02*
D03*
D45*
X12975000Y8920500D02*
D03*
D46*
X7055000Y9517500D02*
D03*
D47*
X7325000Y7700000D02*
D03*
D48*
X14357500Y7502500D02*
D03*
X12390000Y7657500D02*
D03*
X10290000Y7522500D02*
D03*
X8745000Y8932500D02*
D03*
X8337500Y9462500D02*
D03*
X7197500Y9775000D02*
D03*
X11075000Y8145000D02*
D03*
X12407500Y8235000D02*
D03*
X10245000Y7955000D02*
D03*
X9990000Y9340000D02*
D03*
X9797500Y9172500D02*
D03*
X9462500Y9117500D02*
D03*
X9877500Y8927500D02*
D03*
X6082500Y8017500D02*
D03*
X10107500Y9002500D02*
D03*
X10060000Y7817500D02*
D03*
X8980000Y8667500D02*
D03*
X6562500Y9127500D02*
D03*
X12957500Y9057500D02*
D03*
X12575000Y9205000D02*
D03*
X6052500Y8620000D02*
D03*
D49*
X7240000Y9122500D02*
D03*
X13712500Y8472500D02*
D03*
X14950000Y7242500D02*
D03*
X7282500Y8297500D02*
D03*
X12060000Y8237500D02*
D03*
X12692500Y7695000D02*
D03*
X9805000Y8742500D02*
D03*
X10386824Y9027962D02*
D03*
X12400000Y8757500D02*
D03*
X12440000Y9202500D02*
D03*
X12377500Y9482500D02*
D03*
X12842500Y8417500D02*
D03*
X12425000Y7322500D02*
D03*
%TF.MD5,361fda4786c092b8b669cec02a566fb0*%
M02*
