%TF.GenerationSoftware,Altium Limited,Altium Designer,25.8.1 (18)*%
G04 Layer_Color=16711935*
%FSLAX45Y45*%
%MOMM*%
%TF.SameCoordinates,06F4397F-0506-4A86-9E35-FFD2449574FE*%
%TF.FilePolarity,Negative*%
%TF.FileFunction,Soldermask,Bot*%
%TF.Part,Single*%
G01*
G75*
%TA.AperFunction,ComponentPad*%
%ADD39C,1.15000*%
%ADD40R,1.20000X1.20000*%
%ADD42C,1.39000*%
%ADD44R,1.39000X1.39000*%
%ADD45R,1.15000X1.15000*%
%ADD46C,1.20000*%
%ADD47R,1.39000X1.39000*%
%ADD84R,1.49320X1.49320*%
%ADD85C,1.49320*%
%ADD86C,3.20320*%
G04:AMPARAMS|DCode=87|XSize=1.6032mm|YSize=1.6032mm|CornerRadius=0.4516mm|HoleSize=0mm|Usage=FLASHONLY|Rotation=270.000|XOffset=0mm|YOffset=0mm|HoleType=Round|Shape=RoundedRectangle|*
%AMROUNDEDRECTD87*
21,1,1.60320,0.70000,0,0,270.0*
21,1,0.70000,1.60320,0,0,270.0*
1,1,0.90320,-0.35000,-0.35000*
1,1,0.90320,-0.35000,0.35000*
1,1,0.90320,0.35000,0.35000*
1,1,0.90320,0.35000,-0.35000*
%
%ADD87ROUNDEDRECTD87*%
%ADD88C,1.60320*%
%TA.AperFunction,ViaPad*%
%ADD89C,0.80320*%
%ADD90C,0.75320*%
D39*
X13228999Y8666500D02*
D03*
X12975000Y8412500D02*
D03*
X12721000Y8666500D02*
D03*
D40*
X7055000Y9767500D02*
D03*
D42*
X7125000Y7700000D02*
D03*
X8442500Y8987500D02*
D03*
X7982500Y7685000D02*
D03*
D44*
X8442500Y8787500D02*
D03*
X7982500Y7885000D02*
D03*
D45*
X12975000Y8920500D02*
D03*
D46*
X7055000Y9517500D02*
D03*
D47*
X7325000Y7700000D02*
D03*
D84*
X14195068Y7392597D02*
D03*
D85*
X14957069D02*
D03*
X14449069D02*
D03*
X14703069D02*
D03*
D86*
X14576070Y9846597D02*
D03*
D87*
X7112500Y8290000D02*
D03*
D88*
Y8790000D02*
D03*
D89*
X14357500Y7502500D02*
D03*
X12390000Y7657500D02*
D03*
X10290000Y7522500D02*
D03*
X8745000Y8932500D02*
D03*
X8337500Y9462500D02*
D03*
X7197500Y9775000D02*
D03*
X11075000Y8145000D02*
D03*
X12407500Y8235000D02*
D03*
X10245000Y7955000D02*
D03*
X9990000Y9340000D02*
D03*
X9797500Y9172500D02*
D03*
X9462500Y9117500D02*
D03*
X9877500Y8927500D02*
D03*
X6082500Y8017500D02*
D03*
X10107500Y9002500D02*
D03*
X10060000Y7817500D02*
D03*
X8980000Y8667500D02*
D03*
X6562500Y9127500D02*
D03*
X12957500Y9057500D02*
D03*
X12575000Y9205000D02*
D03*
X6052500Y8620000D02*
D03*
D90*
X7240000Y9122500D02*
D03*
X13712500Y8472500D02*
D03*
X14950000Y7242500D02*
D03*
X7282500Y8297500D02*
D03*
X12060000Y8237500D02*
D03*
X12692500Y7695000D02*
D03*
X9805000Y8742500D02*
D03*
X10386824Y9027962D02*
D03*
X12400000Y8757500D02*
D03*
X12440000Y9202500D02*
D03*
X12377500Y9482500D02*
D03*
X12842500Y8417500D02*
D03*
X12425000Y7322500D02*
D03*
%TF.MD5,a2d676c5eda9d5cc90c4c35ebec0df9e*%
M02*
