%TF.GenerationSoftware,Altium Limited,Altium Designer,25.8.1 (18)*%
G04 Layer_Color=0*
%FSLAX45Y45*%
%MOMM*%
%TF.SameCoordinates,06F4397F-0506-4A86-9E35-FFD2449574FE*%
%TF.FilePolarity,Positive*%
%TF.FileFunction,Plated,1,2,PTH,Drill*%
%TF.Part,Single*%
G01*
G75*
%TA.AperFunction,ComponentDrill*%
%ADD93C,0.86000*%
%ADD94C,0.65000*%
%ADD95C,0.70000*%
%ADD96C,0.90000*%
%ADD97C,0.89000*%
%ADD98C,0.89000*%
%TA.AperFunction,ViaDrill,NotFilled*%
%ADD99C,0.30000*%
%ADD100C,0.25000*%
D93*
X14195068Y7392597D02*
D03*
X14957069D02*
D03*
X14449069D02*
D03*
X14703069D02*
D03*
D94*
X13228999Y8666500D02*
D03*
X12975000Y8412500D02*
D03*
X12721000Y8666500D02*
D03*
X12975000Y8920500D02*
D03*
D95*
X7055000Y9767500D02*
D03*
Y9517500D02*
D03*
D96*
X7112500Y8290000D02*
D03*
Y8790000D02*
D03*
D97*
X7125000Y7700000D02*
D03*
X7325000D02*
D03*
D98*
X8442500Y8987500D02*
D03*
Y8787500D02*
D03*
X7982500Y7885000D02*
D03*
Y7685000D02*
D03*
D99*
X14357500Y7502500D02*
D03*
X12390000Y7657500D02*
D03*
X10290000Y7522500D02*
D03*
X8745000Y8932500D02*
D03*
X8337500Y9462500D02*
D03*
X7197500Y9775000D02*
D03*
X11075000Y8145000D02*
D03*
X12407500Y8235000D02*
D03*
X10245000Y7955000D02*
D03*
X9990000Y9340000D02*
D03*
X9797500Y9172500D02*
D03*
X9462500Y9117500D02*
D03*
X9877500Y8927500D02*
D03*
X6082500Y8017500D02*
D03*
X10107500Y9002500D02*
D03*
X10060000Y7817500D02*
D03*
X8980000Y8667500D02*
D03*
X6562500Y9127500D02*
D03*
X12957500Y9057500D02*
D03*
X12575000Y9205000D02*
D03*
X6052500Y8620000D02*
D03*
D100*
X7240000Y9122500D02*
D03*
X13712500Y8472500D02*
D03*
X14950000Y7242500D02*
D03*
X7282500Y8297500D02*
D03*
X12060000Y8237500D02*
D03*
X12692500Y7695000D02*
D03*
X9805000Y8742500D02*
D03*
X10386824Y9027962D02*
D03*
X12400000Y8757500D02*
D03*
X12440000Y9202500D02*
D03*
X12377500Y9482500D02*
D03*
X12842500Y8417500D02*
D03*
X12425000Y7322500D02*
D03*
%TF.MD5,e3eaddcc07d92fe08622e1ea252bd81a*%
M02*
